<?xml version="1.0" encoding="UTF-8"?>
<svg version="1.1" xmlns="http://www.w3.org/2000/svg" width="30" height="30">
<path d="M0 0 C3.95158737 2.23674757 4.91305674 3.59435004 6.3125 7.875 C6.625 11.625 6.625 11.625 6.3125 14.875 C5.6525 15.535 4.9925 16.195 4.3125 16.875 C3.3225 16.875 2.3325 16.875 1.3125 16.875 C1.621875 15.2971875 1.621875 15.2971875 1.9375 13.6875 C2.31703669 9.82887697 2.35465244 8.12387888 0.3125 4.875 C-2.46835309 3.22151978 -4.03352674 2.79524716 -7.25 3.1875 C-8.054375 3.414375 -8.85875 3.64125 -9.6875 3.875 C-10.7703125 3.99875 -10.7703125 3.99875 -11.875 4.125 C-13.90034963 4.75601749 -13.90034963 4.75601749 -15 7 C-15.85144493 10.56058791 -15.38666653 13.30925069 -14.6875 16.875 C-18.5625 16 -18.5625 16 -19.6875 14.875 C-20.09459968 9.68447904 -19.71755245 6.17571961 -16.6875 1.875 C-10.73844919 -1.49238725 -6.47072297 -1.97411887 0 0 Z " fill="#000000" transform="translate(21.6875,3.125)"/>
<path d="M0 0 C0.99 0 1.98 0 3 0 C2.67 3.96 2.34 7.92 2 12 C1.01 12.33 0.02 12.66 -1 13 C-1.02708567 11.39592672 -1.04643483 9.7917215 -1.0625 8.1875 C-1.07410156 7.29417969 -1.08570312 6.40085937 -1.09765625 5.48046875 C-1 3 -1 3 0 0 Z " fill="#000000" transform="translate(19,14)"/>
<path d="M0 0 C0.99 0 1.98 0 3 0 C4.00496852 3.01490557 4.10335303 5.04181692 4.0625 8.1875 C4.05347656 9.08855469 4.04445313 9.98960938 4.03515625 10.91796875 C4.02355469 11.60503906 4.01195312 12.29210938 4 13 C3.01 12.67 2.02 12.34 1 12 C0.67 8.04 0.34 4.08 0 0 Z " fill="#000000" transform="translate(8,14)"/>
<path d="M0 0 C0.66 0 1.32 0 2 0 C2 5.61 2 11.22 2 17 C1.34 17 0.68 17 0 17 C0 11.39 0 5.78 0 0 Z " fill="#000000" transform="translate(14,10)"/>
</svg>
